<svg width="256" height="20" viewBox="0 0 256 20" fill="none" xmlns="http://www.w3.org/2000/svg">
<path d="M255.829 19.236H248.353V9.07198L244.041 19.236H239.505L236.369 11.788L235.221 9.04398V19.236H228.501V0.587982H238.749L241.773 7.89598L242.389 9.49198L243.033 7.89598L246.029 0.587982H255.829V19.236Z" fill="currentColor"/>
<path d="M225.218 11.844C225.218 16.212 222.11 19.824 214.802 19.824C207.55 19.824 204.246 16.212 204.246 11.844V0.587982H211.75V11.396C211.75 13.3 212.898 14.448 215.194 14.448C217.49 14.448 218.61 13.3 218.61 11.396V0.587982H225.218V11.844Z" fill="currentColor"/>
<path d="M200.991 19.236H193.487V0.587982H200.991V19.236Z" fill="currentColor"/>
<path d="M189.911 19.236H183.611L177.087 11.956L175.799 10.472V19.236H168.911V0.587982H175.267L181.763 7.92398L183.023 9.37998V0.587982H189.911V19.236Z" fill="currentColor"/>
<path d="M166.182 10.752C166.182 15.988 161.758 19.824 155.29 19.824C148.794 19.824 144.37 15.988 144.37 10.752V9.016C144.37 3.78 148.794 0 155.29 0C161.758 0 166.182 3.78 166.182 9.016V10.752ZM158.51 11.172V8.624C158.51 6.552 157.306 5.124 155.29 5.124C153.218 5.124 152.042 6.552 152.042 8.624V11.172C152.042 13.244 153.218 14.672 155.29 14.672C157.306 14.672 158.51 13.244 158.51 11.172Z" fill="currentColor"/>
<path d="M141.647 19.236H134.171V9.07198L129.859 19.236H125.323L122.187 11.788L121.039 9.04398V19.236H114.319V0.587982H124.567L127.591 7.89598L128.207 9.49198L128.851 7.89598L131.847 0.587982H141.647V19.236Z" fill="currentColor"/>
<path d="M111.123 19.236H92.5869V0.587982H111.123V5.79598H100.091V8.39998H107.371V11.088H100.091V13.608H111.123V19.236Z" fill="currentColor"/>
<path d="M89.8657 11.032C89.8657 15.596 86.0857 19.236 79.3097 19.236H68.5857V0.587982H79.3097C86.0857 0.587982 89.8657 4.28398 89.8657 8.90398V11.032ZM82.2497 11.116V8.65198C82.2497 6.69198 81.0737 5.34798 78.9177 5.34798H76.0897V14.42H78.9177C81.0737 14.42 82.2497 13.104 82.2497 11.116Z" fill="currentColor"/>
<path d="M65.0103 19.236H58.7103L52.1863 11.956L50.8983 10.472V19.236H44.0103V0.587982H50.3663L56.8623 7.92398L58.1223 9.37998V0.587982H65.0103V19.236Z" fill="currentColor"/>
<path d="M42.2754 19.236H34.2954L33.2314 16.156H26.7074L25.5034 19.236H18.9514L26.5394 0.587982H34.6034L42.2754 19.236ZM31.8874 12.096L30.1794 6.83198L28.2474 12.096H31.8874Z" fill="currentColor"/>
<path d="M19.964 7.02798C19.964 10.612 17.22 13.048 12.74 13.048H7.504V19.236H0V0.587982H12.74C17.22 0.587982 19.964 3.05198 19.964 6.60798V7.02798ZM12.46 7.75598V7.22398C12.46 6.15998 11.816 5.54398 10.304 5.54398H7.504V9.43598H10.304C11.788 9.43598 12.46 8.84798 12.46 7.75598Z" fill="currentColor"/>
</svg>
